<mxfile host="app.diagrams.net" modified="2023-06-18T12:21:44.846Z" agent="Mozilla/5.0 (Macintosh; Intel Mac OS X 10_15_7) AppleWebKit/605.1.15 (KHTML, like Gecko) Version/16.3 Safari/605.1.15" etag="sXX3i5Ib_woY9bN-vc-y" version="21.4.0" type="github">
  <diagram name="Page-1" id="u4YRdIdOAjZEFOaI_Xdl">
    <mxGraphModel dx="1179" dy="1832" grid="0" gridSize="10" guides="1" tooltips="1" connect="1" arrows="1" fold="1" page="1" pageScale="1" pageWidth="1066" pageHeight="1066" background="#000000" math="0" shadow="0">
      <root>
        <mxCell id="0" />
        <mxCell id="1" parent="0" />
        <mxCell id="DJqoMsIzuUcYBf66B5VF-1" value="" style="shape=image;verticalLabelPosition=bottom;labelBackgroundColor=default;verticalAlign=top;aspect=fixed;imageAspect=0;image=data:image/jpeg,UklGRs5TAABXRUJQVlA4WAoAAAAIAAAArwQA4QEAVlA4IO5SAAAwywGdASqwBOIBPm02l0ikIyKhIrQ5eIANiWlu/CCZP+f1NlAb/B7WAC3hdgo2GHHjgWPEqz4+5X3Fs3vpf66/4T0LfVP4T/O/ll54/rftxe6v9z+lq6P9T/nf9j0H+sv8P+9/kN9Ov7Hvj+Xf+l/lPyU+QX8e/mH+Z+3/6h/uO2huB6BHs99g/8n+Q/0PwPfMf+D/Detn99/mf/D/jvgD/XD/oe2vfM+n+wL+qfSr+sfWH9lftd8B/7FiizioOrXy/fRaDq18v30Wg6tfL99FoOrXy/fRaDq18v30Wg6tfL99FoOrXy/fRaDq18v30Wg6tfL99FoOrXy/fRaDq18v30Wg6tfL99FoOrXy/fRaDq18v30Wg6tfL99FoOrXy/fRaDq18v30Wg6tfL99FoOrXy/fRaDq18v30Wg6tfL99FoOrXy/fRaDq18v30Wg6tfL99FoOrXy/fRaDq18v30Wg6tfL99FoOrXy/fRaDq18oR/MASsrdlbsrdlbsrdlbsrdlbssPzv30Wg6tfL99FoOrXy/fRaDq18v30Wg6tfL99FoOmwfIfXD4gTu8EAb/HmGk9zeA+jqiaLUMaW5NicwjEACsW/uIlOs0h7Ik1LMOZ6ljcq/bgIJV624uubpj2HMOZLGob9QEUYSHP2pUOILTHxlhmey35gdvfj6Ii4UmdF+iIuFJnRfoiLhSZ0X6Ii2yNLMIBDTo4bba5li662887uBl+vVa56tvAgY53UgLuo0FeO3tiaxy7VL+BlDkrlFkqXtCMFjExdG4lz/2CqCobH9Q4pthYL6v5fLgLEQQm0zlX0sQXyLCnY8Y7uQtFUmdaQJJqC+USj5wiQuaX/qe9/8SyY5zsGoR08B0EIbzAe/x8twDNCsWznBm+jZ4KXeRDWoJBSNTq18v30Wg6tfL99FoOrXy/fRaDq17KlewBShAF4eM3izvwq2fwwxuT1RKgoN98cD49QL3BKRZgjx7P5+kawhToOsFy8DamvEjanlVtjXd6t4C8VdR1I2h5AqEI/uejPdOJg6siO2ZwOY/iOTDZVg6Kgx9tTEL2nyGMeQzvAZXML0BFKQToOrXy/fRaDq18v30Wg6tfL99FoOrXyi/+lKlXjr6mw+5MiPjmrdsl4tyKFAUCt+7Gcg9Q/hUCsgd70AdY9D/MNDt3u66Y0sJDKQ2ev3/gO6hwwBOrPlk9if6cew8USorXh/G1GhA4HBXrZX8N6L9ERcKTOi/REXCkzov0RFwpM6L9ERcKTOi4onzNHNLK1kmc0Po9fbkTHEm0tZQTq8WKD1MremrT2zkIIZI7ny5EaBI/XHEkXPpLEtFA2UfXIPE+wZNhugV/YUdgrHFSfLZEBCiqnvK2VKTqZUh80anVrINfi4v5EWCkzov0RFwpM6L9ERcKTOi/REXCkyYLSaPpUXdJKGNZSBJ61Oq0KPqXpgmXsI3jgVTDtg+jhWxiQK9w+qo7NjUOQtjoiLaGCOY31od6ZJfutNOOyxhtAKV+iIuFJnRfoiLhSZ0X6Ii4UmdF+iIvxWRRaDq18v14NcXQX5fXDFEHqEvi7fTpN8TiB+oQ4i6Qi9l5zFgQZ+4l4ceU0UfchfixuatB1ZTF10RFwpM6L9EPuEaaPpteh4dePK9HXLCRkq/OjoCn0Im2H0Z2AMHyK+xX2K+xX2K+xX21R0N/rJHe/ENqFBxivPHnv/3ZFNXIl+NV1VwlCX2eX2YtlkpKzc/x7FC5Uv1hprEiVmjC+VjBujbxbzOczxwm9oWXeBV4URqauZJO8VNm2xYXy4k4TV7l++i0HVr2Jywno5TTki6+WQWx0WIJBgbGOrnyUfp++JkkJj7B4QkHgBP8l3pZoXpUbD+PXDqhBQWozwY+sZzdpc1MaB1q3uDkBmvUx5XDli8X5fPC6agCS1v5VVlf7LMyP4r3611GC1EF4soU/CPf7qeWDwGHfkT9PfebkEfIBYqClpaPoI25qgsf2affP2hcZeu8kUdX4vNal+tQvb6PvNEKm+nAet0EtlQMwO+7jgpRT7Ds7OJ5fdoQ9k9xD2FCoyvaZd7/7pieVnZARLVJ53A3JaGp560tDz/+UmSqRdiJeCyBkBN9k4zfMLEoayLlhxcJfUdGQ/J398P3+MKVH0C5DUNTt2V4SLtTT9dDxDXDN+R14Qjnv8vWh0s+xNyZAvOphN8H30Wg6sJ3FhxzqWSBWqm4yMH9Ik8VLKB1PVifDewhBonJNKf5idnhUse890khF0XQ8oh+MdX5hlcc3nNcHWnLaXsyNTwosHqp67t8ZFVKB8bzoorZ9G/Kr8bowmfS+2Brk1gmtq57/i8N6PeGk/qxyTkKLo436pY95njPcf3mWGnGxNFD1JoEoApBa/KlcXoybj+FDMNwkT4URYczcEDMHdFNIC3ln0LHh7m8uPZkncOVzkosVlu3eWsBxz8Vb41eHrTmfFXYUGzXO+xVINzZogjlb2CEmR2pGt0+mzTN9406quWNb8h7Nj1mjULjjfgnDssBliKDLlG7fAueVb1J8/6OuSAvteBGDT77KJkd1rMSf+Q3Abix7HZjVB2Y8H8IZElp5Vg+jfG/G5KfFIvLZv8yQg9W8E0+eR9/KnM9egGgobzUSvdSAdq64B/dBwhm1SCEXW5lrQ73n7GyM4ecS+s0os3zQJMZFx4CYMXc8WUwgXNbh7I/dID5lNO/5aqF9iCg442GBVvnXp0u09uP+chQmQpBbPkys6vTYWOAjT8oywMaZZ1bDaRcWq/dIE6CAfG5PRxawbtf09wL/05SGegZuT+bR3Tc6oTupDBAN5OdjGUKYvTo8kNKUzTm7KkX0aIJ69m+9HpKTPkhfewKJDYlfQdg0EUFshHKF/BEaDzOv79WZVUyzl3q6GbNvxvewnMh8D0UBQkNltChIyitQ2X9+4LY6fm5HQDKbqPFrUlnQ5nQjbCFaYK8mLNQS/vHUjKyvQ2FkngJkbgYq+eefnBXKGqIL1UHdsmT/QaWknUob03B8KCcIOmSapVdRL+0q3A7w1c0wgELZIg/FWN4IDD7kX7kwBWbbjpRrr4zTmjSxNqM1l6ZVNJRF+4LPXkp3qpgVD6lLV74/j0B1+HPx26rq+S+vfvnizGF9e8/+tj3E1MPlziTIhbK3G5/ihtnWr3AdW2ihFAsAELj3y9aSnZLAxh2hqqzEMXmn5+KYNqsms4kWD17e131CLYxvqATUZzRflc9IxY1oN8JFFHiCdXKzXIN7hScWwO14yA//4v1RzgA6PfPRlCFM0E0L1n2ZbLA+7QZKRtxBHvAnclySqNs6JXHSKyLhSZ0MGD8ylQvYcIqRW9It7p5j1Ye8C0dNXXn3LVhwYZVbrPSdRhds5UU/xY7JFYlZsjpPods863Ox3fMcnwNgfQKZPN3MO69yU88kITMh0++cESbaGn/HBjjXJ9MNL0Nu3UIobPPDZjVvdoPW4lE83z2MhWMUA38rRVlOInIn54KlGZMpynoIujo9c3YhSZ0X2CRdkLuPqKvx45L/yQjQW+WSbxIH5SFdvahiQxwhNCMiLhSZ0X6Ii4Umcg+U2mmFni+jozdGxduE5E7UUb9Le1iO4jeA1b6sIgb8EIrICQ2xftQdX4Lmlx5GRYMfkh2xOx99EzGl3P/2OXIXRjn8ySQ6tfL99FoOrXy/fRaDq2ekjGpNsjvERcKTOi/REXCkyXb+fRKf/+MvyrXy/fRaDq18v30Wg6tfL99FoOrXy/fRaDq18v30Wg6tewuc/T0/2iowHPL99FoOrXy/fRaDq18v30Wg6tfL99FoOrXsMQUSyVQh6hxSkAIlAoeocUt70fVnr+da/7KP8iKbDGn+IRssB6eYutiI6QqmQ6RzlfM4P0ZBJECndMFCOpAcrO8lUEV8ztBHK3iY0EbDCqa0NwxAwpIiS8T6Sc8oLiPqzRqdWvl++i0HVr5fvotB1a+X76LP6Jqv8qFJX+SXIqxrgftzxvyDNfHBSaZ6cOnlHE4V0ggtSHy47EWWIMbeyusb9kEvkR9nva5+sR5UcovETJ+xLUeW2bY0u5/7VhV1h6jpmbNFPe3zXzqL690dPvqi2TN/hKznNwf+F1gXOhS63Kfbz6sZumlMianVr5fvotB1a+X76LQdWvl++i0HVrLCtwUY+VaRqdCfKq0SVlLVuV8crYkaFc12JxCF7phHJar5ZGpLz/pOek9bMh8pazzrvEoPrGUgKt0Elbz3ec+KVxEqMkSTSBIp/8WL8F//Hhy8Zq1kGnHCUL8eMLlKcGoONP77pw8Gwqo5t/FJnRfoiLhSZ0X6Ii4UmdF+iIuFJnRfaFrM/+R60BintmrC3maPucGRXknhqoIUAkto0qcgE5kf5vnHVeRlTRtDzsMAIj7SPkjWWnP3SOvkB904ON5msX/1h7b1K7ncSAoWPWQYJWYvpLyUKyfQph6nVh9nhDMDCCvTH0RFwpM6L9ERcKTOi/REXCkzov0RFtnYtE327+IvAkroWLkAYdr5sPInyoi97cCAjuzJBk80/+1YfKK9H0vGba6TBZf8Ig2aqBSWioq11/iDIlnrfSEnNK0TRFFoOrXy/fRaDq18v30Wg6tfL99FoOrXy/fRaDqv8yEE+hZmteQt8FqxW5D+s5JwXppRemq2lMg+2tKwZBCEuzGiPZuB+nNxnMUZNsbevO4bSpMQfeGTeOTDEDmNbxv2lJnRfoiLhSZ0X6Ii4UmdF+iIuFJnRfoiLhSZ0XDkM8b81idKIQNGAj1Z6U4jHka9RS9S8MUkajwZcp/AdF+iIuFJnRfoiLhSZ0X6Ii4UmdF+iIuFJnRfoiLhSZ0X6Ii4UmdF+iIuFJnRfoiLhSZ0X6Ii4UmdF+iIuFJnRfoiLhSZ0X6Ii4UmdF+iIuFJnRfoiLhSZ0X6Ii4UmdF+iIuFJnEAAP7/yxAAAAAAAAAAAAAAAAAAAAAAAUqKkXy2Xm00zQAdwJt189w0O/s10qbqvnidWXIsOWL+4EtpgZ6f0E5h6sKGrmqmd7PqYzM7jEMrZ2prSErXl9SZfUBPMMaNpZ1VRTzjSIw6XpQAAAxnQ1S4le81HmNLKk5Y7Rk3YP7acys0gm1nxV52X+Yn80deIZ9Y0z7psd8ocHr8KHgG7FRN0Jafz/sv78J1rF1Y/LQTMc2BkqpW8cqtOlFOd9aM0l2/aZoqErNJ+7MlCmg7XNOFv/5VWso8qfh3i4Bvu5mX2fJPfWdXXr+kbVl94vGPHLOByV79zpXXZhSz3HK+EuUNmpXZ4mgyFpwgwJHWOMs2hc8n8Uw62642/1xtwhhyZfxirJ3JgrhuJhaKK8O+5LiDv9j+MXJLJPnRWroA6totd0tVsqV4kY5vq5hSQ2OWjohHpdCeQ4LgO9Y38tpJs9/uUdan1U/D6hp88Lf6h35V8Lb6BH5c98sQhoMFFVM8niFCM1YDAs7aVYWVi96rZ4Cg5YNYrVYm52CwKaDmrZSb1X68sOHUz6fBmDzvWqKw1DxdWYjteOre+jTN+GffuzQquygVYaiOqzurvxqV2HgJaQNUK0N+m7+hpOL6fFLP5VLfLDMc9eREyUpFBIQRmvprxTbc2FxTZ0nRB21W5ASwFucvA6AslqEEQjnsgnnr/YnRw5pl8rijWSnKP4tnQUgMQluYS7DFf4AAAz1KkxfRJbA985BqpVzSOKbPNoO6W2xjB6XUX6uQ6FGXXx8OgWRtAG0yAlBDvzmCF+c2RXxjeFdeVEDfRFmPeMIJ+gFAzd5Zub1Sz1gdA/Nnr7HgeBa4q9hwUg7gwseMWHC5eGpwrKx5tfk1F4rdR2vuwcVMNubYVye7Tbunc1mPBDPSDm09qlPrY1v0F/C171CsP0n2u71A32LTTOiYIIrLlnNW+w/TMyHJBs0Z+R/G7WuiicKzXzKJrBAUkmPuEHjmcpZSD17jC/HyMvksqfIHMGaHtkFOo+xZXRK/1QQTMbJ/CxC8vHKBpG5zA9OQzyZi9G4x0xqCEIt3p1TnSCNIMXOdv4eP2czCpm1dEkC+7LK4JDjLx+qW0Bun6uzzLt7AllKpXnEZ0jkMaVZH49+M7dNkIzQlw0W5pgSrISPm8bxqodYefyCUvk2dGeACRgh4OBu4qbIUPAXAcK0583w+e5nAtgAotpVWL7rknzrIbo/6XkvcNGemNsC5hbl/VOTNblJSQDBLnpFStBR8vaQxoHk22Z0EKk25uQWiqxpZR1FM4A8uWZVTJ+vZBKxMW7qVA9rabXetyg+uh4oGxc3d9E9vhaN9Z/leLg0fJSpNgk9qNWHyaBsfJuGLQWkJdyPJQGBXNCSDmmga29/PWRIyBdzOu8t+QJwi6ZNPyDqttwYaft6Bw3jiNBNGn0uYYKmbL9hPT2OZ5fwc9GCa8MuspJn2NUna6ISn/G37cOw8zanZYQuion6pH1Atu776W7D2Qx5jyepBS2vrNBvAP8nob5bqB9qNC78f4hCqXNkqzHpvcbKdHgOoGFsW8jQrDQ56JHAbYVqyVUq1JJB+ql1ic/k4Je+MTV+RI+Piu7rxtgubcMz4TfsiGd6g0Vdw/d12C6KlC67nz1IO0+1UO2bVNpa9o8z8Vuzv7/8cLioVksiWrIOUj/E2Hkg5e//6C0B8TR9phOwu73ZVWQ2YMQkAZluiX19V36W2VqTcHt8PeUK4WNUisnkpz5cQM9BO0ilr4XeeESfO9+aPaD89vnkMkP79R921yKW0rzeoMMDBarX7dA5JCPOV2bZuc0by2scD9PhlUlpmF2eXLGGCi1XtWHcJplZ3RWuKo1+U6LOz+8E29JaUqVvz7A1hqAj/5XEXxbqJ63+KIrdbPkFdtdmwoNmanPL0cI9tHOjYbh/S8uKecNZ5MMhV/q1qLx2KDW5xeI64uPYxCW/4OdYgPzZ/SS08TmjTQo4v366iNROaC4lLU/BggSJjYx9sey81ll+EQXMzx1Rlfb8gEN5c7WDr/6YVhTz/fmcEknwJv7sD4V/xXNSQNq5QdviwYIvpd7WYffxmWS9cKCXM3AWtzBcuyCCVv8E+X3PfWlyQ/qbsXxfb9qG63kj6W+octEFzuQKwRiVJrlfqUHIeLvemCR6w0BxCXYoBdvOovQS4xqGTo/B/Je88Y9/eIArW50odZe6lsTWe4rez0sCkfHnpbbRjB+V+mivMn6N02ZWwYOYmw19mgzxQbaKqZgAA7LLbOaTcrZ+PohTeQ7JTZeURsGvppwBRlDhlepOjhkZMNiYysYz7KZfSoVAFq17K0EFuGQw7f2tTVJsi5YiqXQpnY2tBpxRkyvIstcTfFLF4k2pwcPYG02Hw1iqdbY7oDg/uCJrQ4jYq15rtcKFiWpM0eoxrYkqyPOmF/0j6f6Pl9pUC5dZZJMWx58HbN/+k3hd9xJzVU9koNnM9MimFVTzKrMHDsr0+BhaqIzF0Q/dTT2xoeWxCQlt7fQUw+L7vxj5uKsLZzWTzeGyJ1YSbRUJi7uDTzkM5soH1aVeQllpDUTHIojU+TpaCgYYP/N6fgTIBc4z6j5r7Vi/wHIuRZibuhJQN8omCHH41UTUuf1xHNGT3f7D0cevyhg3ofRv8JWIdlnl1iztcDW9KlcyW7VLDsIgjFdpqv/Zessk1T5QTKKX3lgWDdUR9/7izgWw7W8q0mDO36FqVbXIXf40TmH1NV1ih9MweMJDJKjqDXbx/nQRHh9+xpC/QrDzG3PfMjFtCJzJ0or07jskMW6JZTXtxllQtpBwhlgVXhkZS8+DbjtbBb+8ZyqFDiuytnuTmij0Y4u9/PpIvCgSCGt7PtU6zjs/gfOrLzdKmuP/ndojUGrAX2LrKE+IWGx4oE1NyinDaDi9/m43M7c3/ntKk/8wyhU+N57UjmwQYE9FEDGlwAPWdiZRcv7V6E0ENqW1dCRyxVGjISg1tub0sDc5Ic8TpoRA+yr0md6X5HB5X1JzvNYmdwxTLyEDRJAc3jn1aJV20yxuJcTCoxr/NiwklhsU4PKaBa8W4UUGXY28L6rxiKZfbPe3soet8V4iF6/CqDWJKSxxl/eaSEi+UUqlN7m+jZiDUgcOZR3+Pdp9UswcKxchLSs8hXZT6u1rMmSt0V4n+6MOlinThlwByLmvcd9w5zbfIkJJ5BO31MhiSVS9zB/1nXEI+w0Uq8DDH7cZnSCnUzxn+5ZWdRt5DmBX/Jes7iUH16IYlXWUj+9rbpmmFZE+sSSnHl42Z3yW7Z/upJUDjWnjj9Jup8kPu+spGmsxi1MabGGVAnJbjMZ5xjcDp+uwAAaz7+v/F+nCR+BNUPWTwPrp8KP4umpOOcb+Y0mdDnt5iEL6CdNqzWln5d2n8sp7ppOMCdXFyxRyzjO6rmx/GKKMwuwQrwDyHhSy7CD/+T4GjfLIrxQugeIm1wp2HLXXpvgXQcHJC4q40Nn1KgKVJ5fBHlChQ2Y+YK9FOl9FiugArUAClHpxSAkUuYJCh0jaFYGMUdBZH+KGpMdK7x6rLclUv+9EIgkSmnry/vNJskJYrEFIzCo/gxIEDRWh5HJ004ZB/KrFXiHp5V7jqHsfyhWzgwCcZ8M9RIzzkzQ0EHq8hyumobK3PbrVdZFRKxKVe//fGWgboH9T1+s9Zf+J2D5I+DM3vgOdrfkA5heFdnCLN36/PcE51+q9kA5SwupXX1xkmRc4EN41nyAgujQ5v0JMDBBx4QVf2rQTjUUonbMMVJmxzM9Dv5LAkpN+jXvZWe5RuHtBOHdlu4UMdUXHoYgk0Gd+qcgLUvKpjvCZ1GaIakATnMx70hQhOMnC0QWXjhk4z5Y5fat9JV5jBXWhrKJs0OCkys+m61yvJzkkeY8ed2UD1IXzfvKXUhw/AGQ4qnr7/QWZbzYYvAvAxPgFXv5Nl6JJMskNfdooAZlZe52gLFWRKoc3U+Uyz/2NyM5ynrHFPGt4J8AAAEbjIQEgjwvnY9OPscGgC0JSbuJOnFsMB79II/z/T6zawOtqPvqJiah94lzESqoykQy9uC5HyWn0PIDZF0mC9nvAwl8TBvtCjxU6wxB39RNAaXlG5qbe3cPBqgy2d5iHtkU8l4GPph5c/a3ZzM6Nf5mrAkrx0O6yt9i0Tndhkp5b4UUjcwgW/a7V8MYaNHL6zkoC0dKL8hE8jJOthzab9Ezsp3IM0eYH/0xazCR7nCOYkCmnKaK1XBk1/XZnI56MzV4drDZruIAell4p+qFKzTZ7yXZ6tD2GjVlOhVxzlNK6HL8rhOroDt9z784C0uTR0suh5RwnifKOxiyCf8ZkKp3S3IEGpd3O6s1yNxeOzKNoEj2CzDVqimui32ugMfEHTKiRQGjer6oOlVEJqsqgDqhlPPz3i80mRk5b3VXNySdGt/rHd1Fsml9szF0LND8ZXvNs8zdFLWZYbW87Mq7hK11IgFnEXPa8HSujA64u/nbo2SvVwi1lbv88nnj3xgJrJQYtPJJtOTE6H6HaZRcIGIa+9QH6KwGBO/mAbWS0z1+xdLUWpiC1BwMN9cb3nFOARJiITs34Z5BRQcv+8D9d5FY7nZat9pwbwUhqebLw/W0Rlr9+t81av6muCG6MFJaznOIFDcfkoXx8NXlqZDpqblcTnKnHpC67f2ALCgw2wAAiR1jeimlY7SuC9AUtsEyYEw6HRZqZIRcGn8zQY77UZK6k0qAXQzh+iLPoxlqe7NNu4ilCSTJiFZnt8278gS4DSf8uLuIhVQOBGqxqmk86y0140FDqlBn/zuNiiX9KEYC6Zr9VsWf7UOAM0V71v3J4rn+l04vUXsLHPeSPoikBkDDPDXzjX7uQ2oB0sAGl79m1vO6ZWgGKaGW7B9qG9qvfihtsuPjE5V0VrTUawAuLHro9MiqbHMyy6/9K0TeXxCm6nJfPswznNo+7dO0bZ8pCokM+794xgXue0oR92jaUJoUrIZkXXIaPJNaKYBklN8eLJfX1WeLHmLX7aeCnUGuiy+Jql2uR89a7pK/0SbJNjToOOYvd8oZUUJBYFLUNCvZXouDjbMV2NhxS1FA0RxulqCNsTHfPpZxLxNT95GCBaiuQ02LwXeszCuy5xqMhX0O7nAK2wXWMOY4OkEpm5yxedzUBJDAbPhgQgAAAAA1LA2PiL45Ol8hUykWhIKF3hCFTHMaf+MvNP9+IQj+AVwveBH/c0JK5jFnttjknrtS6JL0zqWWq8P78I9t9VZRS7mlyHy+8YaX2eGXosXK9RRCFeW4aCk3mKpZ9bZOO3D5vSF16enbW9/HzRgdTrkqjwJMK5o/BYVBYIJbxVEF7BTDF+BuWcZiaBMUrTYHUNbcdnjof0vEqswLNk96ITRNXJxkV2/q53wqLJnIY/mOGLHUYe2ITe4HDhMfcCRJuh7A2aShDb7pHJnEhyix8JCb5Rx9/M+Pwt7ewQYKCrYsdzPtMntg9u8ZoK4bhH5eGMyjCDRRlO67H0tJmR6/90yq5j2u76B7e7i1shbn1dj3zJKFVD34S3o7fqU4atJX6aUfv5d3eJ+aJpr/gNw3C/uQsW8j6Y79o1PNCujFguyHnae2yxaV8MHOawSh59qgDsGhmtJNhOKrvHlChf5nU2V6WwRLE1a5ujtdRr2pw8zWCQ3fT/4QGGzuZTu4u4Fj+JsAsY1UMYykVi/m4bsIFMNR/GErqav7cOywQFhuaQ3wVACQc4unQimeMCHUkRfWwJQhDb1eX+kr2wHjpQzUIv7Fb7a37ZxeItrIBaQWndrNi4VDGp18uaAksTg2wX+tVQxTFwyh1yiou8Qo2D60jEt3WJSfMgeXm3y38BU/6OVx4kj75Cpc/EmGfkeCz8Zan4IkBmnU5Tgil5/9ThJuk7IPO4i5kpjjum0TCQb1Dl3p2PxhRmtIGxhp2BHfP5h1PPGSFRfcCnmo++ETdCFzJ2ee5u8LzZKYm9TbHXWdhczAz3q5cDuJbo2vO39IVI3MiQFBttAPJobthWjlXDXLxWr+gMBcFajTR5mc2T6jWzdvYKhqD5e5GiRE6HKT3BZPXAdSbswS359TMvj6v6OlT8U5kkzSawWRwV8l8tQsF0S1ZfBzWoO9Xgf6GKJYJqnoD9w1R5AH7CghrerV3jB1WNBP2x1JRWQL/n+4mWKjV6BnghFjeKIpNNQr9aylnIc6EVtGsh9WZXOZhjT/nIu/lQxCETg/CLOfc/dcYEgvyLNY3ogZKtT3TmYgA48EkZJuRBldryzxkcLJQeDZeYGwVrq0gOAaQP0KAr0/dD3H0W+AolZYEOJ1lQn4Qj6sXr4Ra+aA9zhuF80HOmCANL9aK1+EA0cM5N991h8TO7JRlkqVg+1mH3AhbCLdCgtzNp+GXV2BUEI7ZMuAlud7ooan1Z2hNwF/O5MRRde0GUV8wf8q9cL1h0awhlGE1OKHkLqDkUqXjg6SFbx4gnSNS+W8oRlLP3syYcGKX5U5U+b64XIvMpXhX6yLDM5T1HUwK/nlsm+3GAw8Drs7cHNm3Km01xUb5iRljfOKWzWm+ihuG8BoGHR5WjOen+xNdiuX8+phZrg6FzGdQ+3UGsLwz7/9phiyD0k3QeaN0/52LWke3C2QJbb5cZVR7czX+NZxZJX8scI4AUpZhDqDqbKkiAriksGQd97/YC+sQvYft3anLNdyP8z1Z10BM6Eqz1BIdYWHdLLie0Na3UD28Bj1Q+AgTO52+QaC5+sSNJfN0+S+NCJhULKKrr//YOuD5Qc8HXvWa9XwolSN7gS0MXwRqiMKyu5hPmdcgz3EbZcTRDptWgZwedPeeaYoWK++Gf0IxHEOA8/+xVsgi8R6t8/+DKAgIaJFEvhFRRcS3k39aU0ALkDIPn3TRro5gCHD1L7nxp3BuF2i57wsDwGS3bSmb935qTFBg63buxgCVsDqIQt5Ia/1AemkZFHTEvTcYryZFWEyKsd8r/kQuD9Z5G9HkLTkfMIjIsEi4GAhijpQodqUnbHt84LNnMXg5bKP1AevfqJodTAxWYbKiQqrfSNAD1SI9915501b+3cj0toZxlgqJk3M5gVYF3G9D0fKM34eLt47EmTKKb9eRnMa+QiXWUHffIkwXGHAPAURw8g/TBWDGlMXiPPEb2yB49fmyYc19LAf/pvDKPMHlQn5SP+Y5rqHIaZcdLPI2KCyFVWj+O0tq/lM3PiX/5VEBWUgEavFnsFLVX/FT4TJC0blZRR2Vl8ZjVFZO/V2q1WTxPpEoq0eImlsJ+eNXMNw5ar/WISeBnKaSW5J8rst7NKIsEHt568hGIfsNRpsTkkrJvYQ0dvmx4cxLPZfPnIfbrFjKz173BYnRcIU3t1Umrt4Ddm8CjA6dh08YI4GOyzXIkv3mdb/7V2JlFwUIa1fx388RhS7tT0GJisy4KpPMQF0Zep1HvUkM/nVruBCZZ3Ck0T0+vLFG1r8hWFeuynFsa4QaDe5RlJM+v5/qbFm2nn5WnDjdQVEeUYBcjGxbgcK5p6azig10kYVIgEJK4rDGtETWTYsUjcEkvjKWP4hJyWOrG/inGG163Kh5QeKVBET+Iba4ZN0csXz/UJzUgvRDfpaEyuaY0aVjh6DOZBUwc/xYBrrJ7HKZ5AQ7oT+BkdCp2+MbdhssfUatQp1Zya887y+GWtEJyQ8cDe90FiE06Jb4htsdmjV4xb6l0cljVZvl7jq/LO5kwXXQDDj08UY2n6vTihnH3XYyIomsrPVWeIvrwpSzFvT8bI6QUyhIhUWEfrh9VkkRv2MS0ro7U1EuJOQFpRQVMlnscR2UcW69HC8y9q+KB7PQJWGkWNqnWKroN5lGMsxpoYmFHg/tQtoBGYX7FmSOu4a8JLl9+8xY/jFmGbslM9ulxFLmeaVNC4/PiG7WWy5UB6g66VcaYCKqzxWfck25R6jcprE4x+Me2E+X2WvtT8FzVdgLr5vx1f7/VaYpjlwQXVlnFnIPVTTFTdjv6Qa8YONPtw+a5M6sPk2ajNJ1eW3vb/ujAI0fKUHODqsgDCYc0bil1hIgyo3CloXK9902d2+JYfR5s16hv8s2T4Hlu4xlU7+4EdA5515Dh/BA7mh7XfabuSd/zLYJSDnbLtrLAUKb1RVjkkT1CAVS94d1E+VvxBtWB6BLfJ7CJOqmD2If8Fpx32ram5ksxRnYdTgDeillelBVyOUQWRu+NJoRbvrr0QZfVKY5S6K52Vv34SjSE9dYhGdGsU0LLl3rv3GTS8XfICw6pvKHivwUNco29NAt1UXzAd+7xbqykKSSRBPKEsxcojlBI1q9zUNlV+2WPFt3g2bnm7Be1gCa1h9pKx9ZPzt0J7QdybHwCZV1zqIzFZtbp+80nSmf7CADkw6D47H9bH7tKCCXp8/irpvRxCE523zQbbB+GN2UgP7amHzG3/RF8qSut2+YG5UV+gBJDWW9pvB8LwsUFrF6Q5gkc45saTMYEIyMuSGoyzOB/KPfGMeytKPshH+DSLd/na6hYw497vX8trucmkCjs/6WsXMTLt/F2Piw1mKOGVvS0q2cNqPFegfDb5Ne0Gfz9IApoMsEKyL9F7MmHPsrIXXNQylzQxKCez7IP8/Pw+gg02UjBtwypbYlOU3/Cyyb0QErEm4dS4z9s/tVVhyaxIKZ87Ul7LK8s+pK/chlqAVY0xscElkXREtRumo9RvQn0QMAh2aOHuqAQw+5coZL3LqAIDp3SEl21mtMelfVyFhR7OiSV1weM635o+PbzPkVh0RGmZqT2Qmk4K/q42n83l/SXpjqsZYQMuGVISnLfv0uvPbbCD5oaDx0VXz55qXSGxWaJNPuBblDgBJhK8IP9j0RAto5GyZJUDACZutNMMm133tZ5lylV8+FidLbC53BtMp4BrMSUOu9jtAMzXIf7CbwE0EDVOvdr1b2MKN0mcEnjznLoFSPJD5JlhH/7upoaqpkJUaGMCnP3RkiQ7ZE15dxDorY4EGRpUhV3QcPrrqc0Pr5hwoxiTGgtF9mkutffy3l6enOgG9TJiFOmWCgnqx3Ub6zbsVS8Qd+VY0PLIVaHWA/7OPy0OAzS12JAmClhtT0ba7/XJyIIeil01pVjf9qAvvKkM31DUOym6KhwrH/n4K0ws4xna/XLc5SUTt2l4u5ggxkmw2p8bwoBOCBz/p3YOi/kwc7J/ShkzKhRB4Rv4Slm6BgbU8pmlkwfNi3JUaG7I2ozysqmZsHhY3xVAeH/DEpJAcmW3UQvhpBVr8kSsSxd2YIQZMgf6UzzeDhHqQUeQPz1joIjMx7mgUp6G7ZcPJRBJp+jwypOYrCRQpk5SuSBEOpccJY8RHrUZeXq6lb7KV5s7zFzLqZ+VPmck0Da2VehlHTksFn4xyMZXdF3jEmX0GOZEg0ZH1Fys+GVKxtSTCT2VM2GhvyYiZYNO0YlL8Ena9mDw2zxJ78DXP1iC4clxoIwhVp1qox2bXS1qWW7vMn2h1s3zo48A79MnJOKhbklnCewcLNTQ7fAli28zKH0YdldPfL/nYSHeFyDQCZT1JD0zS+9psRdDbKcQIGSHMH+nnM2nBpJ/iOOudhjy6F0bF/e3bNgsLPZrpomnmz9RcIvPq8wsOLeer/u85dcOXp3oIZx7zRyT0hvlM2DWzDIJ1tQQRMlIVTwd/MgKGrbmfvFFBY82Ddwwp06bDOQzZ1cpxuedKkLfmUv1OnE5cLh3QALQ1eVyUok6hzGkzLcQmgyzEO4pTr/+EvwAvWyjdYtX30rwCkkGvBReyoH6Ypx8Ch3EmKJt7+Ww1F8wCBtdHg+8QadsuEvMwxvWRGe4faxt/vPGkg+0lkLwtvfPpp2WMMQ5RRHiIEpJtL3wOt3PxOWYsOicdUNYS2NSbB5ZZ7FP/42CM9eURGHQKX0OS+DKk76Z7vpegr3kk3Hg8BHvFtoAvd++E/w1poFRVO9xnb3Om3krH3h3NaUWi6ATSUrLHvdHCji9g+MvrFLgPa6D5z2ndWIL/oVDcl56JM19Pdg7DFlNmupYyghcANhEwuvsh7Aerljyw2tZvn4kcDHvQAMfqSV62JI+T7zsD/w+HeURLuqCrvx1pdepFL9W8eUUHi6g3Py35isG1LQInK23wXyncnFJcBZgrpT+PLCJRlxcEQNuUfS7DPHtNB3SWl794Lt4CAN4ZiFqhOBLxWmu4WGUgiT3AgeFm9+B82ZfsmF6BhLs5StQwn/TZCzDYB1GTcLeec2p0KyrjvXPQBWukyPWyRDSdOojZu+qed6v3rewJmfp7/VdwBP53n5Hv30Mrt7Y19kr7xIAPl1DcCw6ZkIffi2+TKRdua7UK6umHRtBDuyv06k7jkrevkFaB5dQFEHH9WylkffmlIL6BLogvHFHj3rYwErgRGnlDP7qNkcO2DhLK/gnw0semoWLGxk4gsuAMyC0M+1EXjOHtv2spDaABW5mkGN38UzIDftT7uuZM4/ZVp5/UwbfbvFoAud5e+sjzP+SduM3fCMerW1H+ssdhWiasq1aYlVZhkVA1/BkjSnPTlJ8y3PN/3wOs7OfCedd2g/4iOgkb54r1UoAFu4NW8cgT0pAJf6AiBogzNWAuKRAxEHY9Ok8XzXZbguI6oGQHfIRSLee5XxnJxHdFPwRRVyFJiS2dorhQAkXl9Azzwc6LG6eGpPVoVJgK2AyD9b7yy6v+v89/lzfN7J9TjtQBTgfuP/UhJ3hR4pVyVznkFBvXDN0tW912xqJt/W+n7DZcwJZx0GKRyfKYol/asqcmRNRBh0VCEq7GuDeupIZOyW59afTuZyybpJos4KExsp4KAHqTVQaHFFb0buKk8xLBufsor9vH1HqFMPFG4TG1WIdpndmCJav+9H75sLX3ojrWflwXsIlPMoZNlgbVgJ092dEqrb0LQo5H9QK5m+h1r/UDUAGn0cJOH9xNqXCUUz4/YTLKAkTKjWweeIYdpefNkHIUyuoXyl/S6+cPHYDZX3+MXtFbs2GW+0fwIEVEHQ/02wX9Tbb54ROw7XZIN57VOVWVS8s9ccxkqjdu0vdKoidSCKWHlMqiq+bvwWh8iZLv5h9v0J/AYDCyRTvsLPKGTRCw5/dxqhW6xHFxkfov0toWUjIFLtDi1R/qgM4Hf6eyrg9NXjhHhrZmu8unfIEFqMIrO2TYxAxKk9n3h5uPDzLgUyeVI3t2h+OSb6rm/e2nc4BkWKFf9QZ1zAQRzZT3yMPt+cyiBbZHrNtENSktcTCb8uatcj8ZgEh0cE4+h5hDMQUL4hbcZS7+p4OppDvyBTh+5iXZdcZnnnUl8q0NEWRZZ6UAfHAyfGbfVkYhi3UBNZaxBd439Ss2c2Nmx+92j190Gxvt/xE99V6uCnM2nEX6y58vcsT+mzeRHFrNeLh5xeI7nodWmuxttYXo3hgvkTUtjH/X9RrpHDIH/YzMlVPLA2qzYzzkdZWoBzsUGxYoFifk6hD0/Vxw0Hqk+JXcGbnk4OM8vzAJDurw3BASm23/srySAW9+IwgFjg/DF/eMamRwXXjeE+Up0huAW9FFLCuxJRPUAdsPAOwGMys8M60MWe+aPb/Cgo8qse5wgCRNbp2SNfgaohHFUDdShSacFuF0IcqAWQUIVx8VfJGhxc7UcuUpSb5JOj0RzKp9rL0dbHcuDMXM3E7GcUvh7s3HD0+E3YzPHsThhuiTVV/ze7jeG7qqk3jqFhVUbTjc4UAgiuAuyPJ12gu820136N1NtUszsrizDOv987SqStdoIUJ/O1u0ylY9QQyk7FbaPSU6S56FteY7zgZf/me/M54Yty3k/MLwUlRQGh0uQGVSfa5SicI57tbbLGN+jOMshMcBi2nQuvIs93hcYmgGyR5u7gQdS9CsbPbGgUzuZGi+MSuxY2MmxOnEXRg6eppg0AzmxIcDp1m688Q3P7uagaHNp/Du3cAsgtN4OYRmA9hIe7HvujBzuFMQTIN0bH3oWeWYyB5FIBm7UDXgxVMacw3Bq7ExP349fdccOYAjWDCg/h7w/aYv9b4oCAhs+sAD7qRKTmz5V0YhmWOJ9X4pxf0EHldTv7hNO340INZfP8325JjbT9P0XqSOQqfAtyu2QLZt1HhdnbPkV1Y2iYmfEwT8zRPKTEBDkV1tC1cH+ENBLGzTkBANbeQeFIL3y5UCzlxTtWacZ4XwdhXQH5Fq4HbZ3+k2cV/iIgoGx1o+ZwLVRZ42KfLv3gd3QOuVt5XGFJuv2rDCsCeAvn99FGr94kNSkZ8i6OQvJbpyyygYcEcV9c9slAO/zX3ylQQmBAHFi/9iZqamNL7/XedF05i/853o8fy8oxCB/U5reedIXMO5zivrrHJu5rmMhexcW5DKhy073n2W/6506wT/mEgPGqQs/3vkl5aZPgm2qGGt0NsgJrpX2yteryP97f4n8oTMWlFrECPfhtpa+Fniot/2tBZCrYRrFzjjnW4AmRTbdhGzaLuBYSVDNBi4LHaSXKsJJXUX2mRguJncogYIDlVDMG1a/Yz1KNDcexKSuB+OwKcX4tm4F1ZKhTCCHKossaXuuevw4zSTbEwrTlihy7+hSFBz885tOa4mwy6EtFsPTiJ+a8VUNBnAsBN+m8TEmMr21WtSygaTqTWBYSNFCRH+7ldKSJoigNL6fsMAwWG/MbsFL4jXC8SFRja0irT29zYo1dgDMKz57MUQB9Wh0L3nmkt/OHJ+3731lDZNKOEzrjnIfeGtDsb+FoRn6M6az08MaIiQ5XZQ1E9g3lmfyB8ReyTRtt/XoNXKyc7P4YsS8PYPQQJf9tE0aiZfIYn1SJuFUuXJmv4WSzViFT16TLo9t4s6NJzQlg0MwbcG9IYZTuOkzWz0dlRFGbQv7i0HJES4pfQXug+wuCOpy73A3Ny9Y1YEfkGsDvztUdHOtT3OdAqzIikljtYkWS0pySIZzxyKf4qg/sUtqJFoRL4+p+HeQfAMwX08e8r+rUIMi4yF44LLTcDKuG26+VVKIceBoHYV0bGoRe71fuX6yTCcIhjxvzSAgbU5bolfY97z06Q7T6LUAXkDL6QCZuOf4Mf4GGYbSRESfTDMJ1o7nIyhXuqXlExif3VDFxqNkuq1vmlNm/Po4YWlXuk3KK0t3IbPPYRMHRrCAE0uNN/vaelzTTfhboO+UUQixJ1EYWak5xkvKs4uodP+ombKS2owRteGsbauALHGUyXXFlG6RXIspiiEQ6T9fdEUkok0rNOWODRbwPOM4vql5PnPVzdujfZZTIruZXxt3XsS00JdnmiKJSMzEy/WILzpy7oVfT0bgMvbQ7Ya6/i4w019P4SnO8nWS576GegGHlBucbq0dq9zmxRmsXkqWB2fYgg10pxCGB1QrON5AurpstBWgtVE8uhWi9PEbvi2z2OrmXKDNATtZ/YNaf1It8f2XSMH/hK/SyP4hf/c5U2bUrfn1b3WS8ntVcxdDm/kQKbgKtsZIUYnLHKRxe8FBuKkrvbVNrxcBhDbHp0UPz9IF/w+2aXrmqplyRqmLslc9QZgP3NCsZ2rLOi6ovCzbmKc/ZAqWdgdlJ629fRhheBJbXhoSDCtDY74kh4NKUgGJ3Lq+NsKIr5niKZF8/6IDNwLDzNO5LkmMYHXFNHsSehnSn6SZTOlrHiMb1XuTO+5oYCq3xDSjDyBTSUBa610TVYIHSIs5BX+Cpm1jiIrwNHbob/sV4V9dDNNvkzzuj54K/idUo0z26utEUXRzYnukqzEMR65EeSJqc6Vl/xUmCaoC9O7Sl77YZ7WeqGmEGBwj3c+zQhW6lWjUFieAoEqseGwlMXQqCyCerCjubHsJCpm92o21Qnvqnha15XBgb4q+idMKT5PsSeXRJBQ4kEuCrsUzPgwtVFs4R09DCZtAExREf/yRN/7wD98KBb8HKF2vnPPT4Tx3818VkT3IBFlmzAISQF9vcBEN3UZXqQOiBPPrUxM84rc1uB5uUFWsxq35nMaHAhQ5Ik6yOuZIBZo2rqaF0q8VGD7++Jpb5C5nX6qPHPHoUvtg9s0Nn1Z1vMhM0lhPGCaAHpkVILyuHbb/VUj2AT+BwSzG6JpruJuCybOd8GQNgQ6u4JsEG88DgoDDtArAAADJg8iz4sft+CAwm7zmD/7BUQof72P/YTy2vKOcX7rlAEmdOHCctJ1X1iPG+BFKHYtxTcHMwLZrxmI9w/VGH6891I7Et2vJF8jhIkS9vEPhQM+FTsB061jygA+pzziOHntk8rWf8ZmsoaHIUehBZ1mhzU0okC0/JsvpPRmwM7gSt1lwzsW0C9BHAiG+Yhg9FupqWK0md+W8or2vJP7N3xXyZ0PLXz2z5BRWyQ8Z+3095XuwyY8RGowDLxIg5cvLgWpy6VBfvb8r8cP6Iqb9plbBQof/4TgrypYAsTrfKBn4Ruaejch+zlnHJHl5HAH0J9V/ieOIbolQ3U1diIT86wrPAGbU1Mjb8kea4/N9FMD0m2b5r93Excp/lmeSqNuGIERmUxbCfAOrKNWZpztQFvN65i3MMEwKla2hQQWBy5kl9hhocMLXwFyVcxZfK5knnV+xTe+dI/wh/K4MiNGHtGQ6eT1TX10FNgS74lYd54RR207/PT0/8qW4ttgnHCrmUbD+6JT5Qi4BhfSM4q/zCjEmFFXuuADiSgKG4/9sE2ouWtbTGxssGMZp7uUg7CwKvBu+AgNm9shuOghBh5OudgmOwpANnVMyoycIlvEgFDIvepHNYJpaG7PH5IC+fNLvj6KAeDn3sQKDUp0x3J3NQP4xq7FPkq037xN8TECsgToT4JRBaZpTcu5jUsUiRvlbF9DA2WT9Nqe1iBUpkBhKX+35LRjUqZNUgROJ9nIrHZXXTDsa0+KaboRXDIPNIutDLUyohR+h20m8EIUSvYzpLdwmnZlWX65+akv6smgPwkHe955zGCTIffd7pw7M4WRsDnYwweblt6D6Yy3q692r6gAMl4vpznL/nAfbi99xjFv1VNf0YRJMpKLVm+90Oybld9elkSIDQ2Sb9rDaaaXThMQQybh5R7ohvVHoDk+UVSZt5b7XQt/mcfVm5OHWuJK9pWT6wR6zllp09YncOJ0WyGU8e/1Y5JX2DWcS8ffGuxqPC9Ia047nOlJGPcG/88XXi+cghl0Q3tnV2O38j2tJ7kvOErVicqmApl+ebvDtE88GdRXAHPXxdHxWkyYjuErwfdD69Wg8smPrZEZ2FEXteClyxA7DaDpTAWnwDpwuJ+LKkKEj7QzxVChCpjfMcw/4quWVCZ+VWRwrQMp2vmS55kNLyGAeKPKT7mw+9NF10U3+1PTAuuoj97o9E0xojErLLyDjoJivUGZftav+ejN0meQV4b/GglCpyPPVx6eGIocECBMxDyutnFPbwI7jGIad3w7u5QmjNn1NavZjaKL5HS1Uz0Y2+jNaMI0k7IWkEKxH3AI36I0c3yG9AziHlKe8LxjvWQYNnf8A+XuF//rcRO1jOzKvZzg82B157uKqI/c+871HFrEQxsZh64TeML3xfYJUbcLfhvM+G9ZRAwLBzZ4I3eUK5R+vDFsFsy5l22DVMe9iZAOr1OLm7ekgIBXCg0PlO+YV0LN+6RS199gOM/iubECCZXdcwiVUaOHioyZR83z3LVOnttlYPwlUT/FkYAmMw7gRgBkC+qr5Zv2diY0Jgg+HY9z5YFr7OtmC2WAL6GPUyMkgL1QBIUyOsPgPO/61NX9DyygBdgECYlOoULspyi55oFQ3CANs9pDt9Rs9tzFDF5xW7ISnlgCn25QFPPs3neFXKSUF6GFLoUOlBm2LLBN3CLaRusHiqCcL1XubUfxHLM6W+FIoXwtc7X/EzT+ilGfgkfl3+D2AT/faDKtjIpHUHP3t4/5HT2VIPdcJjSglqO9MkMPInG0awYl57WixuJ3Ku2vaU4KOoWEOZ5Xzag2yH8KZt9WZd0G/7v6lmZ1xGCMDR5JR8qfxveC4qUGWlrKibY3K4Is3GmsbmWlQtAIZ4e4w1+H68GDyR4pK0AxDA4zqMblV+frlrSVgkw7fOmPBoKgDCR5SW514T6WNlfsDt66tP/CWw4ISdZn1/DfgBAhJw1ileSnSGgaB53i2eP7ARZ841aVFs4BKmbwDBwTHBcnuWM6xhCEzNU0d+nJczYqjw4S8dIEH//3B1WhSS1GRR+4SJwhdxM0tLZVcEXuJFUdNCBWJ2REqhaKlRQnccg3S8nWTiUF9agVi0wFN/+gPwGBOJBdPalLHm87hAQMravyB8IO4rsQqIAMymAsPkQ4nQbIIAAGMJRhz7uaNZHowL1rDVGfMc7uxzAFoGSWYVb7TB5MZqwI+bjSg6ycS2KnF05eKZwaHQy05LgS5jEWPCh/HVn5+TbHj0DEnJUnrqkOFwMHdemHZB+xUaumqrmsHucH3MUCZULncljUVTzdvYEmZI2L4HY/u2z29qPxYZWIKGNok+Ceas63pFu7iUZct4Jtb56er95YM053TLZMeTe77ZSYXXR9Kb9Ovrrm+MwAP2ASgMjOW5/663sThIqh7u1GIHoaxy2ylLpHQqN7YYepXC0Ut0NRbvwHhlaS0JWSf2S4jIrJ3P4tfFdJ/wQjZa+oqRylc47HkUulN7KYd3Z4KbxTzlv86le2V5H6iDUepfPik+lYgu7a/3l+7fFeYnxp5Eig6TXNoUpvzsvriQu4fZTgXOTaI15AvSwwgidgbM2TG1IJGHEdB1zdqL4xUUIk498BQ+R707oP6/PJn1fhyAXqYkNmuXzQAYyPb+79hQyM+MCwkjHo864tSAhDsrXsA/9cTeK7heNobnShEpR8Js2c3MTxzBVKC5gDrIZ+LmEemnCAZyn0fcq365GnTV/mdmz6gn4/5eTHA9w8Sd/i0Ta3VBnuPUNBU33O+UNZmQxt38XBGoBdPH9fx3d+uPa34OHMWzMp9pLMluOapFR7rN/kwygyOHVNhyxTIecFwIE5fhW4LX6904mLlprAWH3URC8sozlPrV0Xf4JJdNrv3lHfSIccpcbkesx8iCplRWqSQV3kO3J0I2G7q+OMJr+i9mBq/QrJqTgxeSwFsF2B3R2XTcd/cDM4AAicGlPbYfrm33GEYZxWuvqtXzAdM46jG/2luiluUGdykNpjr+xBemHrDDjr3mpfDUYdUH8B5JV1zlO0Add0dgbIVhGUXUagwpS8E6odG9Iyzahfu2X5vd8OErckJYRCmE3rorhWLzI4p9A0b3CP6uJW64/nZGfVEfwycLVBWfDUjewlhGBb3mLpZQTA1fcu2SGj1WB4pcg4O12mX0NlFQiSZ0AAOh06c2RNgz9VQzVbPLKpZsWw8cXSjMXma6QHUEGhivm9+R2hDHqd95vgELEbQQRjeZTv2UKNOfl69RpH63pkeFvhLMF8FjMflioUr+ni+lXOOMGAG6z91U5fGWQWq10RHsIMbtHj64BtIOcfqKDk/ywI1c1mRUu6qe+oNtIEKN5sm5eBtA7dpBcpHEVEtO+vb6PszelLbOWxCsrBI0uoc7vYyDYxH//bkff8x+BC7zT5qd7ZTKW6QAAn0QuZ96rVOQh65lVCTG4r9m5lO1wLoeGyzGHsZ6nGee1NbIk6Y5GzdB0Iax2AFJ8pxMI0Mgg+csdEKNQKwVu9i/Nj8YRz2xTkVwWg37ZYYgt3oQ0azEBzcQa2pEbnIF5bJO7c3HLGK7Cqg0UdwQCXQGxd9CxY39kMR48cYr8KB0bLICgpFtct3pPxSK0afM6Y75Gg/UT1bsbGWOHtgBnDHubti/rm5qOHk90ySEQPp5GTxf2jYdRy0pEJz6wJKqiYsCA9kwcyiyC3Xm6xf1KGMXAaKOrXy6DKuers/7LMGxazHvhjxamFFwS8M0B2AtQDPGvJRUCpKyHvHHI1Q9PvYLQl5IV2rrkJAg9feThRx6aK8WbiBKQfAJ0zTcOqC+3pbkNCGp3EI0gt8eCMEYIxn5mJpPO5nMJbc24Qbu8H84CvLW4QonEhURvrYR2Ecu1Z17pNAbmfTnIuSyUvZkSq6x0AyWN8CDrELMGPImref0QjLptokywkeQRHLunbQAE5Qp2Qy5MLqSbGe3pxvVSVbzhjeMhyuh29glYJg3ZvJ7iZtbreUdrloc9OvSIEgAIaYdNxAfvzCdN7aUJ4QIFjtehv425J14RnogAAAAAAAAxubovuQhAQfNgzNak8udwjbiSfnOdLkQ7bHTd1THPuRROnlIFz9vWPMY9joYdHScBaNp7o6bSSIKzrPP33imYlteIOtL9mRGu7KAHsfQAAAACXCs4iCzv7tLwQaGb1wNnhXgrplBxIgTe7GH8347dAwxXCQy8VAQxnw7mkevEZeMNTzALWauP6JIet5HxL/Zdz4XCzccPprPlPfJoAAADct52ZEglzudjbgNWZAS4gbs2CiHg/WJjd3CJ2iaJcQRvDYHnUNSPPxpkQ5J0jshTjVkjbpUWJRa94XY/BByd0tHazShlr2XEyDRl9St0rE3CGM8f+jHp/CHh09oWWMyFBr/li84mKT3NXYlv89jr33mC4wVadT1BFWVlV7KBnXwImouaKqO/lZ9LEWIskKTsAfbhMrl7Zdy3KHDS6c7UKHPp8ce6+ZpaYZargade1mwaLdojWbKveJmaIduVmrJfI5tdZ8iLYstB9Am0WskdkqlcRgU0FtoRR6GjB4ZtvDpEp/oytAquc6l5HVt4+c+QgmC002if1kOv0NKdgMLzEWUmiKgeGCYyuKmQ5rJvBdNu6TvYY4me0F0Ih1jxh8iKgcTbKsDuvInxCPyvN5/me+hvrzph/nCoL0AnfsMyXQRjwSYRFIKwTwqCtlA/TfxPvO8Aw48X29VPMEsqLN8ka7EKWvXtV9fzSzWI+mXQj6wWTHkZh01zBaIFniUSatHByeYUkymewThrVVnuaoj0dOBNOZYnQsq7vNVVlheDrwJXd54DzvH8yGtsSZkf2EjCsiYbLdyPSww4COgxlCvMZSpYa/ypQgiNceM+pJ4t4jlaBxH4LxLsfUmn2jmXpPJkU+991Ff6MLMdH26kTGQ81i7e0nTcmb3vGfSrz+ZfF18l3kaFf2DZmtAC25//iBtp2r3G2G8wymWM4nndEzyG2sYJfdNWhqM+Y77X9RC2rMomon4PLSzuo0+do6YD5sCZCK8XNcVimhiCYB3BXZVG+2chTFHJ510CYQ0P+M1WyPcmbklhDWpsXE00qe5/9dxs8YMPc16C90udQn2mtvkpfu/i575PVB4kIJYCKmSDILMWXPoohF14GS3Kxv/skNI5vyiZDpVfTLuI5YH2tKPp/9wi4S9x3+mwWC/aNPLQQlCSaH9IkPRni/tr0Y3SnNN8YiF3igVMUyYIZMr4PeMHZGSYg3ay7pwJL251x7mk3hy5oUTrNAPlfRdGWt4T+A6+WRyoZgSTJ6XonwHJhCy3hes7EM1i0i1ef9oAAPauYunMGCrk/G7/4+oavcqNwMWYqiW2YXEH8qlnuiVDJeqELLhN7/6N07Yy/KH9vND8NbQGuh+XF7aW0uYEB+YeANFRRsqx5aNxVU5ykgYP51qCqsQYdjIKpd+r24vqJxSJda3S6Ix3d5e3tI1gmZRFB8uZdzz1Baw0U38z27h1aALSoRbwH/PGfCDfHpgKoRfz8hU9P4v/a15XSf0o3/W8x3qF0sBTMsVmDRxG6fvzg6ylcwgxTjrsbuQQbGk7Km2cK0gwYdQuo956feRLa0MvDPxrZ+EKqjzhQwHBfWI3VpqT6bLpmoJimnj0NQjF6xf1ySaLul9Wua/32s1qIhE6Pia1zpTUcgdEfpEKqLJAVtxbggwXp0UwtJd1/q6UNJPc8JmyJQZeSIpbWE/kMa219TbEDOqoR2wQOX4QStSutyaqiMsam/FDWtyyb7t20OYcUO65pcQB7HpCdEyJ6xU63lE/+r9EsSla/vNE7rRkgsPfKdw1RMiFjeJP/JN+wg5IPf/83Vo3RDGeOuPWURDuAU5g2DCzROPSb2tGceuU1Ve6eZoRLPwZLVPQzLZdBZ6BzS0VYsFJ6HbWUIJ14G4IAAGeoxHTGyXNDFK88lVrMLsmsoZvSu2XC8WD8x8Epr+bWzcSyO2r3gAHplGWtiFwJVxqkg5xilJyUIgqb7bHK0Cv2KkCXshnJxJwk0pAOd8+uyLCaOlx79e9TDfmkgf1ksql1xgcejxQXao7uCNeP0xwoxCU6kN2J+6dKn8rcX1sWuVnd8OWcL1rFnxzt3mRi9CsotsY+3n25OXnW6zruO1DDDdxW1dynLe7Rbu5l4KdhZYv3qLoMyL2Tmj4ZA7GLThAvD+lu5wWdRfzl1bShhMF1pNpmyp+ofcX75zEBJjHiP9PNjPNJs2deV2P3XALD2OqUH/KlOMjFUdKl99BE/3fldI0ZhNdGW2KCr046jgX7pmiKFHKe2a/Gsor1uhJCT2D6FYnjQBnHefGOyF054LAPFeAAU4L0FDYuvv3qmLbbzr9J43DyeEvQx0eW9Tre8m03GkEAEpA9wTIidSViUSuBK+ljkt2UMpdI0dmx3mITPpnhktwhZrU5LXAou8ECGL/TCTuNB6Uxx7buEnPxXYr0wzqDv0Xq3xDQUCSHqkuXnLG0XQ07l1yD9wcusbC66roUc467NvXLaigMwtdodPNXf8HQzvev0vit9g8QADwnMJYwi55zafEolRcjRXmRQUIUVOs+CFX2DkRKrS5AGdPmis0AeOUr/uaWOZNRAeM0P9hMWUtxNiY1LcgiwId9tF7NazLSYddfNQTTsdfGUgUpIgwm/hKzZp9F/XU9E9KeLFMcbte72TgMVb+HMV9clPDQaPsXsiGj0CAwhncnmlfdj+CHLHkVz31NpHy4dr99BoT+kxsHxsbmmOPBytIECON0XuOwphj6Y4LFFkIlLsmC44j3oFCIl8LI7nFUFlRAz8HFpKGMXrOY7X3wpi799GT9qA1t92PXwD/GPckaelJtFIdUBnIlm+dN41VKUYSpp3reUw/m/an3EVC+YeI8PSecbDICDGzNA8DTEDMEuW8QE4VJ4P8966pkEZCv2PmeE723HDRCsVclHgJ4iaxbW2dvTzFqS4g7fgTnb+4HDCQjhgPjPb54xSKuTf7a0eGZCvRQATW30vddN+l/KRoC6+Nc1utrCiewUodEwKxkuyhEqSre/I20qd7uxAx0yaRwqIPXfiCsxriMV3L75H83xx1Zt0CbsbfL9fhH5OBjS+hCGSyFJdPkyjSpoxs3UX/IdphawgtBPngXKzWuRJZC9tQpN4owK3N91w1QRE6sCQ6wdnU8bdgavvr/e2MWYny2k7RvTyn2Xqizx/pvtS4PA5zrkQbS/KK13iG6f3uEfz+4DhnT9rSEXQavUMHj+1StGI8QiTq8WIV3JwlngOmAeIF78AABY3BGSSS7VVOWIE8b1GyPjajyyvuYQvveioStaq2OAQS9gmwARpDD4v8XbzET/MWXBmDmqm5whHe7pdFnE8agTeMMiqatXZ08UE1cjBXlUan69KUYzbduZ+4vClxtTrdUowO6v7z3UMMQk3Qy+VQirX4dAXxtjn2kL4QYt/VoEJuainYADBedAZPHsbBJ8l9OkK5UM3BneHKNLRohBFx7kZsJXE1ls8QlpSPUGlG9hrLMocg5Ok9nUFPJ2ZOTdLeWXAxzg475Pnzfdbyy8vaRQ9QD+1wd4CWTHB5oKy5uELUagR/ITSw3Mqoc3cL2kLAo4AnDMmfOwhXtSTVQW++hftEDqMIvqifl4swgXv/V4XQlDiAtvNjqOt2+XHWXxg8UQqqdduJ5OV07wlwqWz7pZQblJj13L6K1LDLx1ojerdarns6ob1JReT7opb3C9l8raRJV1Vg5AKdmbX02+evHqZIRpCX9QUUiI9vb52WEo2fmFxfROdMAzuFB6J8gpf9YOOKDTdXXps0JBGwaI236/tcUGyFEuy+Za4JTvwcqdd+q/PzJ+f5mLCc9Nqupy2+YMW6fb6loxMLiIBJAHhuaxeT6Wb8PZ/+x0X4JCnVy5oWXeKXBtzFugdEEa8IbR1iVtScEJsppBLHDjUS23MUlEaPNGoza9nOXtrdUXmgeRy6lWw6shbbt7EFj8Zdum8hgO0tFUSHA4E8DmRBr8F0NucXRxszIChaSUfw5KaRsYzWZPER3lNFpB98rTtU3KXHndqezGH86dzak4ea+C6FC8H07yhuw+cP8zXPzgAAA6g6gVS0J8196w4eGEMtnRBHsJ6I/2iOkFAUpASSUoMnjgS6qGXbPu4A2ELdDCGr0YZiuV88Vj60MDAKD09/kswxT3PP0NNSc6rPPKGgEbHOFb2JUIoFz2+4BdVaYZR6SceVp4VIMROeOme6cgrSA8FQBznWhclc36PoZ7csuaYRlfYY8jkEPYtez9eOP1slzFNWQHxbLO69mqhcwWx+AOWMAny9HOt9nnkNyETd1pMa7m+Sd8jLSv1VKhf7MWjVp5vPr1JhwM3ReYRJmGiyJhrBfNb0Sk1rpeZmIQvVajesEDiB6GThP7m1BEwWcjGf3u2vaNUo17NK7eVqdmfTmqr8k+dnm3pvpEZ27gure1Fq6ZbtwbnH3kFDq9YJJK7lvm5SpkNHHhp4nNDDLoKFoYy1I3RXOYoRzkXc/EjO5fDRuRVZumoD0eIHr+b29RLtTcZbxPoZMf2ANSVkpaPOn+g87MbH5dxUgh7Ex2vD/0DaGvP0SzK6N2BQiY329ieORQZmUIwlI61dvI4zXOVgAAHNdNuWANPEkjWrEAr6STWcJbvqHJl7TyUxkyiCHGvoKPHibxfFxbOhUayXEERFyYuVzvS0RwEbnBsaJz2lPOhh9HGIMIY0v/a4S4fHglAhXZ08Ajss/rCc1wEV3ZLG4CG4nPRnxLOgpg2mT4yZ4TQhBgojz6lo4SFBy0HyivonAW0Dh9cBFTRv2FozXDqCNsbToYn7y1DzYUBrZevYPTHjKSme5FTtlPyX5l+AciI2++AjA4voRZRvkti8vSDy6Ny2VtWlEBjMdWqLQHbko8ykGwjPEVAXbkCV20//pMxlWy0WjGnaZqCfMkhJA/I4E6wJbPLiyyCc4T+bGeGtbA4O8TUAWe9DZtOxgXDEiaRdUpkDvdKofKIFCAgxUbQpcuTtEdngbJpTV55LgwT/SKPxFLW5AvGU1NRTcwspb13JcFQwAmFSN9cWSXGIrAAKqFHLW+aj4RVgwdWEbGCTE2HvimaSbs2pdijy7hew5E+s3mCk1cWyCyoHZ3fAu9DxdQEuPpXexU01wANtDqEINRI5Vg1+eL6FbboioEDk8x0VmnDi6OdYwjCReN6HdYoyc8uqxgQzeVvjeH7jkuydk7IbeOmqsRq1HqzYgubTuIJu5h7KUC57F1cjNqwCeuNhzVBJR3dUn9KsDXdHEH20oC6tzTyoxLc7os3xyAGalTMOcvoBIFlaojqpfirchLgM+gOmfb9dXI5FJTFMAAAAAAAAAAAAAAAAEVYSUa6AAAARXhpZgAASUkqAAgAAAAGABIBAwABAAAAAQAAABoBBQABAAAAVgAAABsBBQABAAAAXgAAACgBAwABAAAAAgAAABMCAwABAAAAAQAAAGmHBAABAAAAZgAAAAAAAABIAAAAAQAAAEgAAAABAAAABgAAkAcABAAAADAyMTABkQcABAAAAAECAwAAoAcABAAAADAxMDABoAMAAQAAAP//AAACoAQAAQAAALAEAAADoAQAAQAAAOIBAAAAAAAA;imageBorder=default;" parent="1" vertex="1">
          <mxGeometry x="22" y="327" width="1026" height="412.11" as="geometry" />
        </mxCell>
      </root>
    </mxGraphModel>
  </diagram>
</mxfile>
